# 3ds Max Wavefront OBJ Exporter v0.97b - (c)2007 guruware
# File Created: 20.04.2018 14:56:30

mtllib treeTriangulated.mtl

#
# object Hedra001
#

v  -7.8541 121.3862 17.1093
v  3.5989 114.8814 -2.4757
v  -10.4425 120.6379 5.9937
v  13.1239 113.9954 -0.7797
v  5.5241 105.1476 -15.9234
v  14.7447 95.6226 -21.0780
v  -9.0183 107.4192 -18.2374
v  -10.9133 99.1668 -24.3868
v  -19.9313 118.1055 -5.8959
v  -28.3916 115.2407 -2.9244
v  -26.1201 114.2536 11.6181
v  -8.9379 115.5364 30.9508
v  -16.3871 120.3799 19.7621
v  -16.3814 107.9399 31.6712
v  5.6046 108.8397 33.2648
v  9.2766 98.9971 34.9800
v  7.1431 113.8654 23.1824
v  22.8577 106.7685 -11.6212
v  20.2587 83.0054 -16.7807
v  21.9717 97.5478 -18.1949
v  28.6141 102.7551 -3.8491
v  28.3561 79.4830 13.5794
v  29.3625 91.6395 -2.3836
v  -18.2024 95.0759 36.6940
v  3.9074 75.4670 36.2789
v  -7.0869 92.0138 39.2351
v  3.4890 67.3241 31.1889
v  22.2299 81.6212 24.7348
v  21.8416 81.1104 -9.9508
v  13.1173 72.0924 -19.7791
v  16.8159 64.8072 0.0661
v  -0.0099 55.5921 -5.3559
v  6.9734 58.8234 -6.3048
v  -21.7506 84.4098 29.8955
v  -7.6140 64.3219 10.6634
v  -11.0534 74.0208 25.0309
v  -18.0029 65.0654 8.3409
v  3.0521 56.3405 5.7597
v  4.1399 63.6321 -17.9993
v  10.7313 81.5813 -25.8106
v  -10.4025 65.9037 -24.1574
v  -28.9295 83.0858 -13.8913
v  -12.5408 75.6366 -26.1625
v  -26.9583 80.9703 27.6242
v  -35.6832 73.8213 16.4996
v  -27.7019 70.2731 22.7151
v  -36.4316 84.9369 12.2765
v  -34.2164 75.6423 -0.8151
v  15.3955 112.2824 13.7628
v  23.2170 96.1637 23.3207
v  15.9162 57.8074 19.3533
v  -24.6996 66.0525 -6.2015
v  -0.3842 84.1696 -28.3517
v  -33.2003 101.3003 -6.4332
v  -25.9713 95.5127 25.2404
v  -27.2165 97.6283 -16.2752
v  -29.9762 95.9312 17.0970
v  26.0818 105.1410 11.9090
v  23.5126 63.0942 14.6086
v  -16.5568 62.0475 -14.9946
# 60 vertices

vn 0.3053 0.9427 -0.1346
vn 0.1751 0.8093 -0.5607
vn 0.2168 0.6186 -0.7552
vn -0.2455 0.6148 -0.7495
vn -0.3070 0.9508 0.0425
vn -0.7184 0.3209 0.6172
vn -0.0781 0.1697 0.9824
vn 0.8674 0.3797 0.3216
vn 0.9931 -0.1144 0.0266
vn 0.9886 0.0831 0.1256
vn -0.3007 -0.3577 0.8841
vn 0.5792 -0.4533 0.6776
vn 0.8308 -0.4560 -0.3191
vn 0.4325 -0.8865 0.1644
vn -0.5552 -0.7449 0.3699
vn -0.2038 -0.6956 0.6889
vn 0.2727 -0.4664 -0.8415
vn -0.6544 -0.2878 -0.6992
vn -0.6637 -0.2734 0.6962
vn -0.9902 -0.1026 -0.0947
vn 0.1757 0.9249 -0.3372
vn 0.1135 0.7513 0.6501
vn 0.5970 0.8022 0.0012
vn 0.6449 0.0305 0.7637
vn 0.8646 -0.4245 -0.2687
vn -0.3043 -0.8726 0.3821
vn 0.3315 -0.8416 -0.4264
vn -0.6207 -0.7480 0.2351
vn -0.4264 0.3992 -0.8117
vn -0.9481 0.3018 0.1002
vn -0.7781 0.3210 0.5400
vn 0.8720 -0.0869 -0.4817
vn 0.3811 0.9065 0.1815
vn 0.3705 0.9274 0.0514
vn 0.1325 0.9612 -0.2418
vn -0.3975 0.5577 -0.7287
vn 0.0681 0.7424 -0.6665
vn 0.3857 0.6991 -0.6020
vn 0.2688 0.2378 -0.9334
vn 0.1681 0.3606 -0.9174
vn 0.1816 0.5604 -0.8080
vn -0.3233 0.8053 -0.4970
vn -0.5584 0.3784 -0.7382
vn -0.4340 0.5150 -0.7392
vn -0.6127 0.7762 0.1484
vn -0.1582 0.9778 -0.1378
vn -0.2893 0.9572 0.0029
vn -0.8475 0.3077 0.4326
vn -0.7924 0.3546 0.4964
vn -0.5989 0.6333 0.4902
vn -0.1073 0.3748 0.9209
vn 0.0410 0.4481 0.8931
vn -0.0774 0.1431 0.9867
vn 0.5989 0.5494 0.5826
vn 0.5266 0.6439 0.5551
vn 0.6880 0.5091 0.5172
vn 0.7969 -0.0259 -0.6036
vn 0.7559 -0.0723 -0.6507
vn 0.9694 -0.0540 -0.2396
vn 0.9806 -0.0944 0.1719
vn 0.9819 -0.0488 0.1832
vn 0.8591 0.3007 0.4142
vn -0.1060 -0.5091 0.8541
vn -0.5268 -0.5417 0.6550
vn -0.4024 -0.4703 0.7855
vn 0.6060 -0.1741 0.7762
vn 0.6153 -0.1330 0.7770
vn 0.6325 -0.6187 0.4659
vn 0.6638 -0.5293 -0.5284
vn 0.7291 -0.5525 -0.4038
vn 0.6902 -0.7219 0.0497
vn 0.4161 -0.8608 -0.2930
vn 0.4095 -0.8636 -0.2943
vn 0.4983 -0.8634 -0.0792
vn -0.1262 -0.4065 0.9049
vn 0.5868 -0.5492 0.5950
vn -0.1956 -0.7465 0.6360
vn -0.3514 -0.9310 0.0986
vn -0.4080 -0.9083 0.0922
vn -0.3609 -0.9186 0.1613
vn 0.3733 -0.1078 -0.9214
vn 0.1349 -0.4222 -0.8964
vn 0.1052 -0.4291 -0.8971
vn -0.7637 -0.2217 -0.6063
vn -0.7204 -0.3946 -0.5704
vn -0.7130 -0.4452 -0.5417
vn -0.8867 0.1328 0.4429
vn -0.8012 0.2278 0.5534
vn -0.8229 0.1526 0.5473
vn -0.8607 -0.3003 -0.4112
vn -0.9578 0.0670 -0.2793
vn -0.9434 0.1734 -0.2827
vn 0.2138 0.8056 -0.5525
vn 0.1909 0.8193 -0.5407
vn 0.3979 0.9084 0.1283
vn 0.1741 0.8705 0.4605
vn 0.5507 0.8339 -0.0378
vn 0.5784 0.8157 -0.0072
vn 0.2534 -0.0044 0.9673
vn 0.5504 -0.0797 0.8311
vn 0.8588 -0.2807 -0.4285
vn 0.8618 -0.4305 -0.2684
vn -0.5164 -0.7620 0.3908
vn -0.4465 -0.8186 0.3613
vn -0.0931 -0.8938 -0.4387
vn 0.0847 -0.8532 -0.5147
vn -0.4298 -0.9022 0.0369
vn -0.4882 -0.8627 -0.1321
vn -0.4362 -0.0953 -0.8948
vn -0.4481 -0.0792 -0.8905
vn -0.8473 0.3077 0.4328
vn -0.9288 0.3305 0.1675
vn -0.4877 0.1734 0.8556
vn -0.8263 -0.0804 0.5574
vn 0.3980 -0.1351 -0.9074
vn 0.4895 -0.0818 -0.8682
# 116 vertex normals

vt 0.0000 -0.0854 0.5000
vt 0.1809 0.1972 0.4309
vt 0.0000 0.0854 0.5000
vt 0.1118 0.3781 0.3191
vt 0.3973 0.3657 0.0460
vt 0.2060 0.4870 0.1160
vt 0.3191 -0.1118 0.3781
vt 0.3191 0.1118 0.3781
vt 0.4309 0.1809 -0.1972
vt 0.1972 0.4309 -0.1809
vt 0.3781 0.3191 -0.1118
vt -0.3191 0.1118 0.3781
vt -0.1809 0.1972 0.4309
vt -0.1118 0.3781 -0.3191
vt -0.4536 0.2547 -0.1007
vt -0.2583 0.3720 -0.1788
vt 0.1809 -0.1972 -0.4309
vt 0.3191 0.1118 -0.3781
vt 0.3191 -0.1118 -0.3781
vt -0.4309 0.1809 0.1972
vt -0.1972 0.4309 0.1809
vt -0.3781 0.3191 0.1118
vt -0.0000 0.0854 0.5000
vt -0.1809 -0.1972 0.4309
vt -0.0000 -0.0854 0.5000
vt 0.0000 -0.0854 -0.5000
vt -0.1809 0.1972 -0.4309
vt 0.0000 0.0854 -0.5000
vt 0.1118 -0.3781 -0.3191
vt 0.3411 -0.3067 -0.1612
vt 0.1242 -0.4486 -0.2362
vt 0.1809 -0.1972 0.4309
vt 0.4309 -0.1809 0.1972
vt 0.1809 0.1972 -0.4309
vt -0.1972 -0.4309 -0.1809
vt -0.1891 -0.1835 -0.4364
vt -0.1249 -0.3695 -0.3146
vt -0.3191 -0.1118 -0.3781
vt -0.1809 -0.1972 -0.4309
vt 0.3781 -0.3191 -0.1118
vt 0.4249 -0.2130 -0.1712
vt -0.1118 0.3781 0.3191
vt 0.1118 0.3781 -0.3191
vt -0.1118 -0.3781 -0.3191
vt -0.1118 -0.3781 0.3191
vt 0.1771 0.1741 0.4578
vt 0.4309 0.1809 0.1972
vt -0.3191 -0.1118 0.3781
vt -0.1941 0.1721 -0.4429
vt -0.3191 0.1118 -0.3781
vt -0.4309 0.1809 -0.1972
vt 0.2179 -0.1576 -0.4335
vt 0.4309 -0.1809 -0.1972
vt 0.1118 -0.3781 0.3191
vt 0.1972 -0.4309 0.1809
vt 0.3781 -0.3191 0.1118
vt -0.3052 -0.3423 -0.1615
vt -0.4309 -0.1809 -0.1972
vt 0.2795 -0.3566 -0.1730
vt 0.2089 -0.3107 -0.2894
# 60 texture coords

o Hedra001
g Hedra001
usemtl wire_154185229
s off
f 1/1/1 2/2/1 3/3/1 
f 4/4/2 5/5/2 2/6/2 
f 6/2/3 7/7/3 5/8/3 
f 8/9/4 9/10/4 7/11/4 
f 10/12/5 3/3/5 9/13/5 
f 11/14/6 12/15/6 13/16/6 
f 14/17/7 15/18/7 12/19/7 
f 16/20/8 17/21/8 15/22/8 
f 18/2/9 19/7/9 20/8/9 
f 21/23/10 22/24/10 23/25/10 
f 24/26/11 25/27/11 26/28/11 
f 27/29/12 28/30/12 25/31/12 
f 29/32/13 30/33/13 19/7/13 
f 31/18/14 32/28/14 33/34/14 
f 34/35/15 35/36/15 36/37/15 
f 37/38/16 38/26/16 35/39/16 
f 39/12/17 40/23/17 30/13/17 
f 41/40/18 42/19/18 43/41/18 
f 44/38/19 45/26/19 46/39/19 
f 47/28/20 48/17/20 45/26/20 
f 2/2/21 9/13/21 3/3/21 
f 13/24/22 17/32/22 1/1/22 
f 49/42/23 18/2/23 4/4/23 
f 16/34/24 28/14/24 50/43/24 
f 22/24/25 29/32/25 23/25/25 
f 27/29/26 38/26/26 51/17/26 
f 32/28/27 39/43/27 33/34/27 
f 37/44/28 48/17/28 52/29/28 
f 42/45/29 53/25/29 43/24/29 
f 47/28/30 10/43/30 54/34/30 
f 55/29/31 24/26/31 14/17/31 
f 6/2/32 30/13/32 40/23/32 
f 1/1/33 17/32/33 49/7/33 
f 1/1/34 49/7/34 4/8/34 
f 1/1/35 4/8/35 2/2/35 
f 4/4/36 18/46/36 20/8/36 
f 4/4/37 20/8/37 6/47/37 
f 4/4/38 6/47/38 5/5/38 
f 6/2/39 40/23/39 53/25/39 
f 6/2/40 53/25/40 8/32/40 
f 6/2/41 8/32/41 7/7/41 
f 8/9/42 56/18/42 54/34/42 
f 8/9/43 54/34/43 10/43/43 
f 8/9/44 10/43/44 9/10/44 
f 10/12/45 11/48/45 13/24/45 
f 10/12/46 13/24/46 1/1/46 
f 10/12/47 1/1/47 3/3/47 
f 11/14/48 57/49/48 55/50/48 
f 11/14/49 55/50/49 14/51/49 
f 11/14/50 14/51/50 12/15/50 
f 14/17/51 24/26/51 26/28/51 
f 14/17/52 26/28/52 16/34/52 
f 14/17/53 16/34/53 15/18/53 
f 16/20/54 50/12/54 58/13/54 
f 16/20/55 58/13/55 49/42/55 
f 16/20/56 49/42/56 17/21/56 
f 18/2/57 21/23/57 23/25/57 
f 18/2/58 23/25/58 29/32/58 
f 18/2/59 29/32/59 19/7/59 
f 21/23/60 58/13/60 50/12/60 
f 21/23/61 50/12/61 28/48/61 
f 21/23/62 28/48/62 22/24/62 
f 24/26/63 34/39/63 36/38/63 
f 24/26/64 36/38/64 27/50/64 
f 24/26/65 27/50/65 25/27/65 
f 27/29/66 51/52/66 59/19/66 
f 27/29/67 59/19/67 22/53/67 
f 27/29/68 22/53/68 28/30/68 
f 29/32/69 31/54/69 33/55/69 
f 29/32/70 33/55/70 39/56/70 
f 29/32/71 39/56/71 30/33/71 
f 31/18/72 59/19/72 51/17/72 
f 31/18/73 51/17/73 38/26/73 
f 31/18/74 38/26/74 32/28/74 
f 34/35/75 44/57/75 46/58/75 
f 34/35/76 46/58/76 37/38/76 
f 34/35/77 37/38/77 35/36/77 
f 37/38/78 52/50/78 60/27/78 
f 37/38/79 60/27/79 32/28/79 
f 37/38/80 32/28/80 38/26/80 
f 39/12/81 41/48/81 43/24/81 
f 39/12/82 43/24/82 53/25/82 
f 39/12/83 53/25/83 40/23/83 
f 41/40/84 60/59/84 52/60/84 
f 41/40/85 52/60/85 48/17/85 
f 41/40/86 48/17/86 42/19/86 
f 44/38/87 55/50/87 57/27/87 
f 44/38/88 57/27/88 47/28/88 
f 44/38/89 47/28/89 45/26/89 
f 47/28/90 54/34/90 56/18/90 
f 47/28/91 56/18/91 42/19/91 
f 47/28/92 42/19/92 48/17/92 
f 2/2/93 5/4/93 7/42/93 
f 2/2/94 7/42/94 9/13/94 
f 13/24/95 12/45/95 15/54/95 
f 13/24/96 15/54/96 17/32/96 
f 49/42/97 58/13/97 21/23/97 
f 49/42/98 21/23/98 18/2/98 
f 16/34/99 26/28/99 25/27/99 
f 16/34/100 25/27/100 28/14/100 
f 22/24/101 59/45/101 31/54/101 
f 22/24/102 31/54/102 29/32/102 
f 27/29/103 36/44/103 35/39/103 
f 27/29/104 35/39/104 38/26/104 
f 32/28/105 60/27/105 41/14/105 
f 32/28/106 41/14/106 39/43/106 
f 37/44/107 46/39/107 45/26/107 
f 37/44/108 45/26/108 48/17/108 
f 42/45/109 56/54/109 8/32/109 
f 42/45/110 8/32/110 53/25/110 
f 47/28/111 57/27/111 11/14/111 
f 47/28/112 11/14/112 10/43/112 
f 55/29/113 44/44/113 34/39/113 
f 55/29/114 34/39/114 24/26/114 
f 6/2/115 20/4/115 19/42/115 
f 6/2/116 19/42/116 30/13/116 
# 116 faces

#
# object Cylinder002
#

v  5.8107 0.0000 2.5305
v  -4.3269 25.5184 -3.6338
v  -0.4267 23.3169 2.5305
v  1.3320 0.0000 -3.6338
v  -10.6377 29.0805 -1.2792
v  -5.9147 0.0000 -1.2792
v  -10.6377 29.0805 6.3403
v  -5.9147 0.0000 6.3403
v  -4.3269 25.5184 8.6949
v  1.3320 0.0000 8.6949
v  1.9548 71.7094 2.5306
v  -0.2241 70.1154 2.3016
v  -0.2241 70.1154 2.7595
v  2.1547 38.8537 0.0607
v  3.7174 36.6522 2.5305
v  -0.3738 42.4157 1.0041
v  -0.3738 42.4157 4.0570
v  2.1547 38.8537 5.0004
v  9.6451 49.6451 0.0607
v  12.2492 50.3572 2.5306
v  5.4316 48.4928 1.0041
v  5.4316 48.4928 4.0570
v  9.6451 49.6451 5.0004
v  6.4660 60.9696 -0.4828
v  8.6450 62.5636 2.5305
v  2.9403 58.3906 0.6682
v  2.9403 58.3906 4.3929
v  6.4660 60.9696 5.5439
v  -3.7498 67.5364 2.3891
v  -3.7498 67.5364 2.6720
# 30 vertices

vn 0.9704 0.2413 0.0095
vn 0.0389 0.0219 -0.9990
vn 0.9704 0.2408 0.0177
vn 0.3723 0.0913 -0.9236
vn -0.8990 -0.1536 -0.4102
vn -0.7798 -0.1266 -0.6131
vn -0.9011 -0.1464 0.4081
vn -0.7824 -0.1372 0.6075
vn 0.0625 0.0305 0.9976
vn 0.3861 0.1064 0.9163
vn 0.0000 -1.0000 -0.0000
vn -0.5904 0.8071 0.0000
vn 0.7209 -0.2240 -0.6558
vn 0.0098 0.2625 -0.9649
vn -0.7925 0.6099 0.0000
vn -0.0617 0.2144 0.9748
vn 0.7468 -0.1861 0.6384
vn 0.6815 -0.4243 -0.5962
vn -0.2619 0.1818 -0.9478
vn -0.7231 0.6908 0.0000
vn -0.2795 0.2670 0.9223
vn 0.6724 -0.4668 0.5744
vn 0.7332 0.2165 -0.6447
vn -0.2335 -0.1119 -0.9659
vn -0.9698 -0.2441 0.0000
vn -0.2457 -0.0946 0.9647
vn 0.7495 0.1798 0.6371
vn 0.0682 0.0499 -0.9964
vn -0.1565 0.1811 -0.9709
vn -0.8071 -0.5904 0.0000
vn -0.1046 0.1095 0.9885
vn -0.0742 0.2404 0.9678
vn 0.7861 -0.2223 -0.5768
vn -0.1806 0.2994 -0.9369
vn -0.1580 0.3342 0.9292
vn 0.7786 -0.2420 0.5790
vn 0.5728 -0.3976 -0.7168
vn -0.1553 0.1484 -0.9767
vn -0.1839 0.1276 0.9746
vn 0.5978 -0.3722 0.7100
vn 0.6586 0.1495 -0.7375
vn -0.1962 -0.0825 -0.9771
vn -0.1911 -0.1005 0.9764
vn 0.6474 0.1912 0.7378
vn 0.4977 0.5645 -0.6585
vn -0.2892 -0.0316 -0.9567
vn -0.3366 0.0402 0.9408
vn 0.6011 0.4397 0.6673
# 48 vertex normals

vt 0.7500 0.0000 1.0000
vt 0.9500 1.0000 1.0000
vt 0.7500 1.0000 1.0000
vt 0.9500 0.0000 1.0000
vt 1.1500 1.0000 1.0000
vt 0.1500 0.0000 1.0000
vt 0.3500 1.0000 1.0000
vt 0.1500 1.0000 1.0000
vt 0.3500 0.0000 1.0000
vt 0.5500 1.0000 1.0000
vt 0.5500 0.0000 1.0000
vt 0.9755 0.6545 -0.2500
vt 0.7939 0.0955 -0.2500
vt 0.5000 1.0000 -0.2500
vt 0.5000 1.0000 0.2500
vt 0.0245 0.6545 0.2500
vt 0.9755 0.6545 0.2500
vt 0.2061 0.0955 0.2500
vt 0.7939 0.0955 0.2500
vt 1.1500 0.0000 1.0000
vt 0.2061 0.0955 -0.2500
vt 0.0245 0.6545 -0.2500
# 22 texture coords

o Cylinder002
g Cylinder002
usemtl wire_224086086
s 8
f 61/61/117 62/62/118 63/63/119 
f 64/64/120 65/65/121 62/62/118 
f 66/66/122 67/67/123 65/68/121 
f 68/69/124 69/70/125 67/67/123 
f 70/71/126 63/63/119 69/70/125 
s 1
f 70/72/127 68/73/127 61/74/127 
usemtl Material__49
f 71/75/128 72/76/128 73/77/128 
usemtl wire_224086086
s off
f 63/75/129 74/76/129 75/75/129 
f 62/76/130 76/78/130 74/76/130 
f 65/78/131 77/79/131 76/78/131 
f 67/79/132 78/77/132 77/79/132 
f 69/77/133 75/75/133 78/77/133 
f 75/75/134 79/76/134 80/75/134 
f 74/76/135 81/78/135 79/76/135 
f 76/78/136 82/79/136 81/78/136 
f 77/79/137 83/77/137 82/79/137 
f 78/77/138 80/75/138 83/77/138 
f 80/75/139 84/76/139 85/75/139 
f 79/76/140 86/78/140 84/76/140 
f 81/78/141 87/79/141 86/78/141 
f 82/79/142 88/77/142 87/79/142 
f 83/77/143 85/75/143 88/77/143 
usemtl Material__49
f 85/75/144 72/76/144 71/75/144 
f 84/76/145 89/78/145 72/76/145 
f 86/78/146 90/79/146 89/78/146 
f 87/79/147 73/77/147 90/79/147 
f 88/77/148 71/75/148 73/77/148 
usemtl wire_224086086
s 8
f 61/61/117 64/64/120 62/62/118 
f 64/64/120 66/80/122 65/65/121 
f 66/66/122 68/69/124 67/67/123 
f 68/69/124 70/71/126 69/70/125 
f 70/71/126 61/61/117 63/63/119 
s 1
f 66/81/127 64/82/127 61/74/127 
f 68/73/127 66/81/127 61/74/127 
usemtl Material__49
f 89/78/128 90/79/128 73/77/128 
f 72/76/128 89/78/128 73/77/128 
usemtl wire_224086086
s off
f 63/75/149 62/76/149 74/76/149 
f 62/76/150 65/78/150 76/78/150 
f 65/78/131 67/79/131 77/79/131 
f 67/79/151 69/77/151 78/77/151 
f 69/77/152 63/75/152 75/75/152 
f 75/75/153 74/76/153 79/76/153 
f 74/76/154 76/78/154 81/78/154 
f 76/78/136 77/79/136 82/79/136 
f 77/79/155 78/77/155 83/77/155 
f 78/77/156 75/75/156 80/75/156 
f 80/75/157 79/76/157 84/76/157 
f 79/76/158 81/78/158 86/78/158 
f 81/78/141 82/79/141 87/79/141 
f 82/79/159 83/77/159 88/77/159 
f 83/77/160 80/75/160 85/75/160 
usemtl Material__49
f 85/75/161 84/76/161 72/76/161 
f 84/76/162 86/78/162 89/78/162 
f 86/78/146 87/79/146 90/79/146 
f 87/79/163 88/77/163 73/77/163 
f 88/77/164 85/75/164 71/75/164 
# 56 faces

